
<svg width="219" height="58" viewBox="0 0 219 58" fill="none" xmlns="http://www.w3.org/2000/svg">
    <path
        d="M116.056 6.75525C112.531 3.81818 108.419 1.63637 104.056 0.461541C103.426 0.293709 102.797 0.125874 102.167 0L101.16 6.08392C101.832 6.20979 102.503 6.37763 103.132 6.58742C106.867 7.72028 110.349 9.69231 113.244 12.4196L116.056 6.75525Z"
        fill="#1A408A" />
    <path
        d="M22.8671 8.68506L15.3566 23.9578L0 55.2585H7.97203L21.986 25.8039L20.6434 19.5941L22.8671 23.9997L30.7552 39.9438H19.3427L15.7343 47.2865H33.5664L37.4685 55.2585H45.6923L22.8671 8.68506Z"
        fill="#1A408A" />
    <path
        d="M178.574 29.7484L177.609 29.3708C177.231 29.203 176.854 29.0352 176.434 28.8254C176.015 28.6156 175.595 28.4477 175.175 28.2379C173.707 27.5247 172.322 26.7275 171.147 25.8463C169.259 24.4198 168.294 22.8673 168.294 21.1051C168.294 18.0421 171.273 15.7764 175.343 15.7764C176.938 15.7764 178.364 16.154 179.497 16.7415C179.749 16.8673 179.959 17.0352 180.168 17.203C181.008 17.8324 181.679 18.5876 182.099 19.5526L182.266 19.217L185.791 12.0422C185.581 11.8743 185.329 11.7065 185.078 11.5387C182.392 9.6925 179.078 8.64355 175.343 8.64355C171.189 8.64355 167.329 9.94425 164.56 12.3359C161.791 14.6855 160.28 17.9163 160.28 21.5666C160.28 24.9652 161.581 27.8603 164.434 30.3359C166.826 32.4757 170.057 33.9862 172.826 35.203L173.078 35.3289C176.938 37.0072 182.224 39.3568 182.224 43.3848C182.224 45.0631 181.385 46.4477 179.833 47.4128C178.364 48.3359 176.434 48.7974 174.294 48.7974C169.889 48.7974 166.364 46.6575 164.77 43.1331L159.189 49.0911C162.294 53.3708 167.749 55.9303 174.21 55.9303C178.742 55.9303 182.896 54.7135 185.917 52.4897C189.189 50.1401 190.91 46.8254 190.91 43.0072C191.078 35.2449 184.154 32.224 178.574 29.7484Z"
        fill="#1A408A" />
    <path d="M74.7692 48.084H58.4056L57.1049 53.1609V9.06299H48.9231V55.2588H78.2518L74.7692 48.084Z" fill="#1A408A" />
    <path d="M189.566 9.06299V16.1959H200.098V55.2588H208.28V16.1959V12.1259L209.329 16.1959H218.895V9.06299H189.566Z"
          fill="#1A408A" />
    <path
        d="M136.49 8.68506L129.021 23.9578L113.665 55.2585H121.595L135.609 25.8039L134.308 19.5941L136.49 23.9997L144.378 39.9438H132.965L129.357 47.2865H147.189L151.091 55.2585H159.357L136.49 8.68506Z"
        fill="#1A408A" />
    <path
        d="M109.384 40.1121C108.084 42.5037 106.196 44.5177 103.846 45.9442C101.496 47.3708 98.7691 48.168 96.0418 48.168C91.888 48.168 88.0278 46.5317 85.1327 43.5107C82.1957 40.5317 80.6013 36.5456 80.6013 32.3498C80.6013 28.0701 82.1957 24.0841 85.1327 21.1051C88.0278 18.0421 91.888 16.4478 96.0418 16.4478C98.4334 16.4478 100.783 17.0352 102.965 18.1261C104.266 18.8394 105.482 19.7205 106.573 20.7275C107.203 21.3149 107.748 21.9442 108.252 22.6575L109.93 19.2589L111.902 15.231C111.273 14.6016 110.601 14.0142 109.888 13.4687C108.797 12.5876 107.622 11.8324 106.364 11.161C103.133 9.48272 99.6502 8.64355 96.0418 8.64355C92.895 8.64355 89.9579 9.27293 87.1048 10.5317C84.3355 11.7065 81.86 13.3848 79.8041 15.6086C77.6642 17.7485 76.0279 20.3079 74.895 23.161C73.7202 26.0981 73.0488 29.1191 73.0488 32.3918C73.0488 35.5806 73.6782 38.6435 74.895 41.5387C76.0279 44.3918 77.6642 46.9512 79.8041 49.0911C81.86 51.3149 84.3355 52.9932 87.1048 54.168C89.916 55.3848 92.895 56.0561 96.0418 56.0561C100.154 56.0561 104.182 54.8813 107.706 52.7415C110.517 51.0631 112.951 48.7554 114.797 45.9862L109.384 40.1121Z"
        fill="#1A408A" />
</svg>
