<svg width="868" height="309" viewBox="0 0 868 309" fill="none" xmlns="http://www.w3.org/2000/svg">
<path d="M193.81 308.499V272.098H197.966V304.676H213.424L213.258 308.499H193.81Z" fill="#1A408A"/>
<path d="M244.507 308.499L240.352 297.03H226.389L222.068 308.499H217.912L231.376 272.098H235.531L248.662 308.499H244.507ZM239.022 293.374C235.697 283.4 233.869 277.749 233.537 276.419L227.719 293.374H239.022Z" fill="#1A408A"/>
<path d="M272.264 306.172L261.46 280.242L260.629 277.749L260.795 286.725V308.499H256.972V272.098H262.291L274.425 301.02L286.559 272.098H291.712V308.499H287.722V286.559L287.889 277.915L287.058 280.409L276.253 306.172H272.264Z" fill="#1A408A"/>
<path d="M308.333 272.098H304.178V308.333H308.333V272.098Z" fill="#1A408A"/>
<path d="M348.557 308.501H343.903L325.619 279.912L324.456 278.25C324.622 281.74 324.622 284.732 324.622 287.392V308.501H320.799V272.266H325.453L343.737 300.855L344.9 302.517C344.734 297.365 344.734 294.207 344.734 293.375V272.1H348.557V308.501Z" fill="#1A408A"/>
<path d="M383.132 308.499L378.977 297.03H365.015L360.693 308.499H356.538L370.001 272.098H374.157L387.288 308.499H383.132ZM377.814 293.374C374.489 283.4 372.661 277.749 372.328 276.419L366.511 293.374H377.814Z" fill="#1A408A"/>
<path d="M424.523 290.215C424.523 296.199 422.86 300.687 419.702 303.679C416.378 306.837 411.89 308.333 406.072 308.333H395.601V272.098H405.407C408.399 272.098 410.893 272.43 413.22 273.095C415.547 273.76 417.541 274.923 419.204 276.419C420.866 277.915 422.195 279.744 423.193 282.071C424.024 284.398 424.523 287.223 424.523 290.215ZM420.035 290.382C420.035 285.395 418.705 281.572 416.212 279.245C413.718 276.918 409.895 275.754 405.075 275.754H399.59V304.676H405.74C410.394 304.676 413.885 303.513 416.378 301.02C418.871 298.693 420.035 295.036 420.035 290.382Z" fill="#1A408A"/>
<path d="M467.073 290.215C467.073 293.041 466.74 295.534 465.909 297.861C465.244 300.188 464.081 302.183 462.751 303.845C461.421 305.507 459.593 306.837 457.598 307.668C455.437 308.499 453.11 308.998 450.451 308.998C446.96 308.998 443.802 308.167 441.309 306.671C438.816 305.175 436.821 302.848 435.658 300.188C434.328 297.362 433.829 294.204 433.829 290.381C433.829 284.564 435.325 279.91 438.151 276.585C441.143 273.261 445.132 271.599 450.451 271.599C455.604 271.599 459.759 273.261 462.751 276.585C465.577 279.91 467.073 284.564 467.073 290.215ZM437.985 290.215C437.985 294.869 438.982 298.526 441.143 301.185C443.304 303.845 446.295 305.175 450.285 305.175C454.274 305.175 457.432 303.845 459.427 301.185C461.421 298.526 462.585 294.869 462.585 290.215C462.585 285.395 461.588 281.738 459.427 279.078C457.432 276.419 454.274 275.089 450.285 275.089C446.295 275.089 443.137 276.419 441.143 279.078C439.148 281.738 437.985 285.561 437.985 290.215Z" fill="#1A408A"/>
<path d="M477.047 302.517C480.704 304.345 484.693 305.342 488.849 305.342C494.001 305.342 496.661 302.849 496.661 298.029C496.661 296.533 496.328 295.203 495.497 294.206C494.666 293.209 493.17 292.544 491.009 291.879L484.028 290.05C478.709 288.721 476.05 285.729 476.05 281.241C476.05 277.75 477.213 275.257 479.54 273.595C481.867 271.933 485.026 271.102 489.015 271.102C491.176 271.102 493.17 271.268 494.999 271.766C496.827 272.265 498.323 272.93 499.653 273.595L498.489 277.085C497.492 276.421 495.996 275.922 494.334 275.423C492.505 274.925 490.843 274.758 489.015 274.758C483.363 274.758 480.371 276.753 480.371 280.908C480.371 282.238 480.87 283.402 481.701 284.233C482.532 285.064 483.862 285.729 485.69 286.227L492.339 287.89C495.165 288.554 497.326 289.718 498.822 291.214C500.318 292.71 500.983 294.871 500.983 297.863C500.983 301.519 499.819 304.345 497.658 306.174C495.497 308.002 492.505 308.999 488.682 308.999C485.857 308.999 483.363 308.667 481.203 308.168C479.042 307.503 477.213 306.838 476.05 306.007L477.047 302.517Z" fill="#1A408A"/>
<path d="M555.667 290.215C555.667 296.199 554.005 300.687 550.847 303.679C547.522 306.837 543.034 308.333 537.217 308.333H526.745V272.098H536.552C539.544 272.098 542.037 272.43 544.364 273.095C546.691 273.76 548.686 274.923 550.348 276.419C552.01 277.915 553.34 279.744 554.337 282.071C555.335 284.398 555.667 287.223 555.667 290.215ZM551.345 290.382C551.345 285.395 550.016 281.572 547.522 279.245C545.029 276.918 541.206 275.754 536.386 275.754H530.901V304.676H537.051C541.705 304.676 545.195 303.513 547.522 301.02C550.182 298.693 551.345 295.036 551.345 290.382Z" fill="#1A408A"/>
<path d="M566.471 308.499V272.098H586.583L586.417 275.921H570.626V287.722H585.586V291.545H570.626V304.676H586.915L586.749 308.499H566.471Z" fill="#1A408A"/>
<path d="M636.116 308.499L631.961 297.03H617.998L613.677 308.499H609.521L622.985 272.098H627.14L640.272 308.499H636.116ZM630.631 293.374C627.307 283.4 625.478 277.749 625.146 276.419L619.328 293.374H630.631Z" fill="#1A408A"/>
<path d="M648.417 308.499V272.098H652.572V304.676H668.031L667.865 308.499H648.417Z" fill="#1A408A"/>
<path d="M702.771 272.098V295.701C702.771 299.856 701.607 303.18 699.446 305.507C697.285 307.834 693.795 308.998 689.307 308.998C684.819 308.998 681.495 307.834 679.334 305.507C677.173 303.18 676.176 299.856 676.176 295.701V272.264H680.331V295.867C680.331 299.191 681.162 301.518 682.658 303.18C684.154 304.676 686.481 305.507 689.639 305.507C692.798 305.507 694.958 304.676 696.454 303.18C697.95 301.684 698.781 299.191 698.781 295.867V272.264H702.771V272.098Z" fill="#1A408A"/>
<path d="M730.028 306.172L719.224 280.242L718.393 277.749L718.559 286.725V308.499H714.736V272.098H720.055L732.355 301.02L744.489 272.098H749.642V308.499H745.652V286.559L745.819 277.915L744.821 280.409L734.183 306.172H730.028Z" fill="#1A408A"/>
<path d="M766.101 308.501H761.945V272.265H766.101V308.501ZM773.082 258.968L765.436 268.442H762.776L767.264 258.968H773.082Z" fill="#1A408A"/>
<path d="M806.326 308.499H801.671L783.387 279.91L782.224 278.248C782.39 281.738 782.39 284.73 782.39 287.39V308.499H778.567V272.264H783.221L801.505 300.853L802.669 302.516C802.503 297.363 802.502 294.205 802.502 293.374V272.098H806.326V308.499Z" fill="#1A408A"/>
<path d="M822.78 272.098H818.625V308.333H822.78V272.098Z" fill="#1A408A"/>
<path d="M867.159 290.215C867.159 293.041 866.826 295.534 865.995 297.861C865.33 300.188 864.167 302.183 862.837 303.845C861.507 305.507 859.679 306.837 857.518 307.668C855.357 308.499 853.03 308.998 850.371 308.998C846.88 308.998 843.722 308.167 841.229 306.671C838.736 305.175 836.741 302.848 835.577 300.188C834.248 297.362 833.749 294.204 833.749 290.381C833.749 284.564 835.245 279.91 838.071 276.585C841.063 273.261 845.052 271.599 850.371 271.599C855.524 271.599 859.679 273.261 862.671 276.585C865.663 279.91 867.159 284.564 867.159 290.215ZM838.071 290.215C838.071 294.869 839.068 298.526 841.229 301.185C843.223 303.845 846.382 305.175 850.371 305.175C854.36 305.175 857.518 303.845 859.513 301.185C861.507 298.526 862.505 294.869 862.505 290.215C862.505 285.395 861.507 281.738 859.347 279.078C857.352 276.419 854.194 275.089 850.205 275.089C846.215 275.089 843.057 276.419 841.063 279.078C839.234 281.738 838.071 285.561 838.071 290.215Z" fill="#1A408A"/>
<path d="M459.757 26.7611C445.795 15.1258 429.506 6.48251 412.219 1.82841C409.726 1.16354 407.232 0.498654 404.739 0L400.75 24.1016C403.409 24.6003 406.069 25.2652 408.562 26.0962C423.356 30.5841 437.152 38.3964 448.621 49.2005L459.757 26.7611Z" fill="#1A408A"/>
<path d="M90.5888 34.4062L60.8358 94.9096L0 218.908H31.5814L87.0982 102.223L81.7793 77.6229L90.5888 95.0758L121.838 158.239H76.6265L62.3318 187.327H132.974L148.433 218.908H181.011L90.5888 34.4062Z" fill="#1A408A"/>
<path d="M707.426 117.849L703.603 116.353C702.108 115.689 700.612 115.024 698.949 114.193C697.287 113.361 695.625 112.697 693.963 111.865C688.145 109.04 682.66 105.882 678.006 102.391C670.526 96.7397 666.703 90.5896 666.703 83.6084C666.703 71.4745 678.505 62.4988 694.628 62.4988C700.944 62.4988 706.595 63.9947 711.083 66.3217C712.081 66.8204 712.912 67.4853 713.743 68.1502C717.067 70.6434 719.727 73.6354 721.389 77.4584L722.054 76.1286L736.016 47.7054C735.185 47.0405 734.188 46.3756 733.19 45.7107C722.552 38.3971 709.421 34.2417 694.628 34.2417C678.172 34.2417 662.88 39.3944 651.91 48.8689C640.939 58.1771 634.955 70.9759 634.955 85.4368C634.955 98.9005 640.108 110.37 651.411 120.176C660.885 128.653 673.684 134.637 684.655 139.458L685.652 139.956C700.944 146.605 721.887 155.913 721.887 171.87C721.887 178.519 718.563 184.004 712.413 187.827C706.595 191.484 698.949 193.312 690.472 193.312C673.019 193.312 659.057 184.835 652.741 170.873L630.634 194.476C642.934 211.43 664.542 221.569 690.14 221.569C708.091 221.569 724.547 216.749 736.515 207.939C749.48 198.631 756.295 185.5 756.295 170.374C756.959 139.624 729.533 127.656 707.426 117.849Z" fill="#1A408A"/>
<path d="M296.201 190.486H231.376L226.223 210.598V35.9033H193.81V218.909H309.997L296.201 190.486Z" fill="#1A408A"/>
<path d="M750.973 35.9033V64.1604H792.694V218.909H825.106V64.1604V48.0372L829.262 64.1604H867.159V35.9033H750.973Z" fill="#1A408A"/>
<path d="M540.709 34.4062L511.122 94.9096L450.286 218.908H481.702L537.218 102.223L532.066 77.6229L540.709 95.0758L571.958 158.239H526.747L512.452 187.327H583.095L598.553 218.908H631.298L540.709 34.4062Z" fill="#1A408A"/>
<path d="M433.33 158.905C428.177 168.38 420.697 176.358 411.389 182.009C402.081 187.661 391.277 190.819 380.473 190.819C364.017 190.819 348.725 184.337 337.256 172.369C325.621 160.567 319.304 144.777 319.304 128.155C319.304 111.201 325.621 95.4099 337.256 83.6084C348.725 71.4745 364.017 65.1583 380.473 65.1583C389.947 65.1583 399.255 67.4853 407.898 71.807C413.051 74.6327 417.872 78.1232 422.193 82.1125C424.686 84.4395 426.847 86.9328 428.842 89.7585L435.491 76.2948L443.303 60.3379C440.81 57.8446 438.15 55.5176 435.324 53.3568C431.003 49.8662 426.349 46.8743 421.362 44.2148C408.563 37.5661 394.767 34.2417 380.473 34.2417C368.006 34.2417 356.371 36.735 345.068 41.7215C334.098 46.3756 324.291 53.0243 316.146 61.8339C307.669 70.311 301.187 80.4503 296.699 91.7531C292.045 103.388 289.385 115.356 289.385 128.321C289.385 140.954 291.878 153.088 296.699 164.557C301.187 175.859 307.669 185.999 316.146 194.476C324.291 203.285 334.098 209.934 345.068 214.588C356.205 219.409 368.006 222.068 380.473 222.068C396.762 222.068 412.719 217.414 426.681 208.937C437.818 202.288 447.458 193.146 454.772 182.176L433.33 158.905Z" fill="#1A408A"/>
</svg>
