<?xml version="1.0" encoding="UTF-8"?>
<svg xmlns="http://www.w3.org/2000/svg" viewBox="0 0 1491.37 1571.69">
  <defs>
    <style>
      .cls-1 {
        mix-blend-mode: color-dodge;
      }

      .cls-2, .cls-3 {
        fill: #fff;
      }

      .cls-4 {
        letter-spacing: -.06em;
      }

      .cls-5 {
        isolation: isolate;
      }

      .cls-3 {
        font-family: ArialMT, Arial;
        font-size: 40px;
      }

      .cls-6 {
        stroke: #a7a9ac;
        stroke-miterlimit: 10;
        stroke-width: 5px;
      }

      .cls-6, .cls-7 {
        fill: none;
      }

      .cls-8 {
        letter-spacing: -.06em;
      }

      .cls-7 {
        stroke: #c5c7c7;
        stroke-linecap: round;
        stroke-linejoin: round;
        stroke-width: 3px;
      }
    </style>
  </defs>
  <g class="cls-5">
    <g id="Camada_2" data-name="Camada 2">
      <g id="Layer_1" data-name="Layer 1">
        <g>
          <g class="cls-1">
            <path class="cls-6" d="M396.38,124.05l-61.72,49.2s-3.58,8.05-13.42-3.58c-8.05,4.47-25.05,13.42-25.05,13.42,0,0-27.73-7.16-34.89-36.68-5.37-16.1-8.05-21.47-8.05-21.47l-19.88,19.68-72.26-.89v25.94l17,8.95-24.15,12.52v26.84l26.84,36.68-26.84,121.66-27.73-8.05-83.19,37.57-8.95,50.1-22.36,16.1-8.95,23.26,38.47,64.41-5.37,7.16,31.31,6.26,3.58,19.68h29.52l36.68-23.26-1.79,59.94,67.99,5.37,73.35-39.36s20.57-8.95,51.88-8.95c2.68,18.79.89,65.3,18.79,83.19,17.89,17.89,73.35,23.26,82.3,32.2,8.95,8.95,52.78,41.15,82.3,39.36,7.16,8.95,14.31,42.04,14.31,42.04l-14.31,10.73,10.73,8.05,6.26,34.89h72.46l-8.05,37.57s30.42,23.26,33.1,33.1c2.68,9.84-23.26,61.72-19.68,83.19,3.58,21.47,10.73,46.52,10.73,46.52l-6.26,33.99,46.52,7.16h18.79l16.1,4.47,17.89,67.09h41.15v50.1l-9.84,8.95s25.05,9.84,28.63,41.15l3.58,31.31s-89.46,50.99-92.14,59.94c-2.68,8.95-51.88,69.78-51.88,69.78h24.15l33.1,25.94,1.79,16.1,23.26-5.37s39.36,39.36,65.3,51.88c10.73,29.52,8.05,35.78,5.37,68.88,12.52-1.79,17.89-11.63,28.63-31.31,10.73-19.68,24.15-40.26,39.36-47.41,8.95-8.95,30.42-29.52,38.47-47.41,8.05-17.89,40.26-84.09,77.83-109.14-.89-16.1-6.26-101.98,24.15-132.4,15.21-18.79,67.99-58.15,67.99-58.15l38.47-1.79v-17l118.98-21.47,7.16-17.89,27.73-12.52s14.31-48.31,34.89-69.78c9.84-22.36,17.89-37.57,17.89-37.57,0,0-2.68-57.25,19.68-66.2,3.58-14.31,17.89-127.92,8.05-169.97,12.52-15.21,44.73-36.68,45.62-48.31,7.16-14.31,35.78-52.78,35.78-52.78l31.31-27.73,38.47-61.72s23.26-74.25-25.05-135.97c-41.15,4.47-62.62-12.52-62.62-12.52l-102.87-71.56s-109.14,2.68-135.08-21.47c-16.1,7.16-23.26,20.57-34.89-6.26-11.63-26.84-17.89-30.42-17.89-30.42h-19.68l-33.1-8.95s-19.68-19.68-59.04-10.73c-10.73,21.47-18.79,21.47-18.79,21.47l-14.31-4.47,15.21-35.78-27.73-7.16-32.2-25.05s-3.58-6.26.89-35.78c-15.21-22.36-28.63-34.89-28.63-34.89l-27.73-78.72s-36.68,92.14-71.56,88.56c-24.15-2.68-80.51-15.21-80.51-15.21l-19.68,6.26-3.58,16.1h-43.83s-61.43,39.36-76.93,20.28c-15.51-19.08-44.13-58.44-20.28-100.19-5.96-17.89-11.93-34.59-11.93-34.59V3.29l-21.47,5.96-9.54,20.28-65.6,28.63-7.16,16.7-81.11-29.82,27.43,35.78,2.39,14.31s-8.95,8.95,19.98,28.92Z"/>
            <path class="cls-6" d="M396.38,124.05l36.68,10.73s1.79,102.87,10.73,107.35c8.95,4.47,23.26,20.57,23.26,20.57l17-29.52s30.42,20.57,35.78,4.47c5.37-16.1,11.63-37.57,18.79-36.68s30.42,7.16,36.68-2.68,0-37.18,0-37.18"/>
            <path class="cls-6" d="M575.29,198.3s6.66,32.4,9.84,37.17,86.28,54.07,83.89,59.64c-3.98,7.55-72.56,163.21-73.75,167.98,2.39,7.75,48.31,96.61,56.66,101.98,10.73,4.77,248.09,22.07,251.67,20.28,9.54-19.68,38.76-61.43,40.55-68.58s-7.75-25.05-2.98-29.82,39.96-36.38,38.76-44.73c-1.19-8.35-17.89-30.42-13.12-36.38,4.77-5.96,41.75-26.84,46.52-39.96,4.77-13.12,36.38-56.66,38.17-66.79s9.05-45.72,9.05-45.72"/>
            <path class="cls-6" d="M966.1,407.39s45.14,8.59,45.44,10.08c.3,4.47.3,36.98-2.09,43.83-2.39,6.86-10.44,22.36-6.86,27.43,3.58,5.07,13.12,25.35,20.57,25.94,7.45.6,25.05-6.56,21.77,4.77-5.37,9.54-20.57,28.03-17.59,33.99,2.98,5.96,12.52,15.21,12.23,19.68s-.6,9.5,2.39,12.35c2.98,2.85,19.98,11.8,23.56,14.18,5.67-8.65,8.05-17,8.35-21.77.3-4.77-9.24-25.35-4.77-30.42,4.47-5.07,15.21-40.85,18.79-41.75,3.58-.89,33.1-14.31,39.36-20.57,6.26-6.26,20.28-19.98,25.05-18.79,4.77,1.19,20.87,2.39,25.64.3,4.77-2.09,14.01-10.44,5.37-20.87-7.75-9.84-8.65-20.87-.89-27.73,6.56-8.95,5.62-20.57,4.45-27.73s-7.43-18.19-3.56-22.66,18.49-28.92,18.49-28.92h9.24l15.53-22.97"/>
            <path class="cls-6" d="M1246.82,317.28s-9.56,14.02-6.87,19.98,15.51,26.84,16.4,33.4c-5.07,8.05-10.32,5.07-8.44,12.52,1.88,7.45,11.12,63.81,14.7,68.98,3.58,5.17,24.25,14.71,18.69,19.48-5.57,4.77-14.31,15.9-12.33,20.67,1.99,4.77,7.95,16.7,3.98,21.87-3.98,5.17-76.73,60.04-76.73,60.04,0,0-42.14-15.11-42.94-2.78s5.57,26.64-17.89,40.95c-23.46,14.31-36.58,16.3-43.73,9.14-7.16-7.16-14.31-16.3-18.69-17.49-4.37-1.19-7.45-4.37-7.45-4.37"/>
            <path class="cls-6" d="M1076.06,605.75s-21.78,10.22-23.37,16.18c-1.59,5.96-7.95,21.07-3.18,25.05,4.77,3.98,21.27,9.54,16,17.1-5.27,7.55-14.01,13.52-12.82,18.29,1.19,4.77,8.9,25.84,9.22,34.99s2.71,69.97,3.1,71.17c5.17,1.59,16.3.99,21.07-2.48,4.77-3.48,32.2-28.53,38.96-28.53s27.83,1.19,27.83,1.19v16.4l17.49-1.69s40.55,19.88,47.71,19.48,9.94,3.58,15.51,9.94c5.57,6.36,7.16,12.72,21.47,12.72s39.36,4.37,39.76,9.54c.4,5.17-19.08,31.01-19.08,35.78s5.17,25.45,5.17,25.45c0,0,3.18,11.13,7.16,14.71s21.85,16.03,21.85,16.03"/>
            <path class="cls-6" d="M1286.39,899.06s-22.59,6.74-25.77,11.11c-3.18,4.37-8.35,24.25-7.16,27.43,1.19,3.18,8.35,13.52,7.16,19.88-1.19,6.36-13.12,35.38-20.28,36.18s-11.93,1.99-11.93,1.99c0,0-3.18,22.26,0,27.43,3.18,5.17,13.12,11.93,19.88,14.31,6.76,2.39,14.14,5.38,14.14,5.38"/>
            <path class="cls-6" d="M1227.57,1020.72l-25.79,37.76s-88.66,23.46-95.82,26.24c-7.16,2.78-53.28,16.3-53.28,16.3l-9.54-16.7,4.62-37.37-26.09-15.51v-23.85l-14.31-20.67-62.82,6.36-8.35-10.34-41.35-4.77-21.47,13.12s-55.26,89.46-67.59,98.6c-12.33,9.14-23.06,9.54-26.24,13.52-3.18,3.98-28.03,46.72-28.03,46.72"/>
            <path class="cls-6" d="M805.79,1089.88s19.68-4.17,30.42,0c10.73,4.17,46.52,16.7,62.02,17.29,15.51.6,23.26-4.17,23.85,4.77.6,8.95,1.79,33.99,9.54,38.17,7.75,4.17,12.52,7.16,11.33,11.93-1.19,4.77-4.41,16.1.18,16.1s20.69-5.37,23.67,0,19.65,28.6,19.65,28.6"/>
            <path class="cls-6" d="M876.91,989.13s-4.33-20.31,3.43-30.44c9.54-10.14,21.47-23.26,31.01-25.64,9.54-2.39,36.98-11.33,44.13-12.52,7.16-1.19,28.77,5.96,34.06,3.58,5.3-2.39,27.36-18.49,27.36-18.49l-7.75-20.28,14.91-22.07-10.14-25.64v-29.82s-35.78-3.58-36.38,0c-.6,3.58,1.19,12.52,5.96,14.31,4.77,1.79,30.42,7.75,35.19,4.17,4.77-3.58,13.42-8.8,13.42-8.8v-24.15l13.57-3.73s-1.04-12.67,2.98-10.73c4.03,1.94,16.35,9.64,16.35,9.64"/>
            <path class="cls-6" d="M773.88,1281.62s70.07,6.86,75.44,15.21c5.37,8.35,31.61,39.36,38.76,39.96s33.99-7.16,33.99,0-14.31,28.03-11.33,31.01,13.63,11.87,13.63,11.87"/>
            <path class="cls-6" d="M769.77,1246.67s81.94,20.34,89.09,14.97c7.16-5.37,14.31-23.26,26.24-21.47,11.93,1.79,31.43,2.14,39.27-.13,7.84-2.26,23.35-11.21,28.72-9.42,5.37,1.79,20.7,4.29,20.7,4.29"/>
            <path class="cls-6" d="M877.47,964.22s-63.33-24.62-66.91-29.79c-.4-7.16,0-11.13,0-11.13,0,0-13.92,3.98-13.12-4.77s-3.18-40.55-3.18-40.55c0,0,21.07-31.81,23.85-38.96,2.78-7.16,2.78-14.31,13.12-16.3,10.34-1.99,19.08-8.75,21.87-16.7,2.78-7.95,3.58-15.9,10.34-16.7s15.51,2.39,16.3-12.33c.8-14.71,15.11-93.83,19.88-87.87,4.77,5.96.8,5.96,11.13,13.12,10.34,7.16,27.43,17.89,29.42,12.33s2.39-23.06,8.75-16.7c6.36,6.36,11.93,14.31,15.11,15.11s33.79,5.57,44.13,5.17,49.32-20.4,49.32-20.4"/>
            <path class="cls-6" d="M894.54,698.52s-5.26-9.4-5.26-23.32-6.76-36.98,0-49.3c6.76-12.33,14.31-40.55,14.31-40.55"/>
            <path class="cls-6" d="M736.63,119.46s-4.15,19.21,0,21.59c8.32,3.58,17.87.6,22.64,8.35,4.77,7.75,7.16,5.37,13.72,7.75s7.16,5.96,8.95,11.33c1.79,5.37,14.31,8.95,14.31,17.29s12.33,44.73,21.67,54.27c9.34,9.54,17.09,20.28,24.25,10.14s41.15-52.18,52.48-56.8c11.33-4.62,19.4-10.06,19.4-10.06"/>
            <path class="cls-6" d="M7.74,482.37s29.32,13.52,55.56,19.49c26.24,5.96,62.02,7.75,78.72,19.08,16.7,11.33,139,72.87,139,72.87,0,0,7.11-23.97,12.48-22.78,5.37,1.19,27.43,6.56,29.82,2.39,2.39-4.17,12.52-8.95,14.91-5.96s4.17-1.19,7.16-5.96.6-9.54,15.51-9.54,12.52,2.39,20.28-7.75c7.75-10.14,8.35-26.24,29.22-24.45s16.1-4.17,28.63,8.35c12.52,12.52,19.68,16.7,28.63,16.7h8.95v82.9s45.32.6,51.88,5.96c6.56,5.37-2.98,22.07,0,28.63s10.14,7.75,7.75,20.87c-2.39,13.12-33.85,57.74-35.52,57.43"/>
            <path class="cls-6" d="M476.59,544.8s105.56,3.58,110.93,0c5.37-10.14,18.42-59.32,18.42-59.32"/>
            <path class="cls-6" d="M626.28,907.69s15.51-1.49,20.28-9.24c4.77-7.75,0-10.61,10.73-14.55,10.73-3.94,14.31-11.69,26.84-3.94,12.52,7.75,28.03,10.7,33.99,12.21,5.96,1.51,13.12-15.06,22.07-8.27,8.95,6.8,0,12.16,11.33,5.6,11.33-6.56,14.31-19.55,16.7-5.6,2.39,13.95-7.75,16.93,0,16.93s28.36-1.28,28.36-1.28"/>
            <path class="cls-6" d="M1114.58,1082.08s12.85.51,17.22,5.95c4.37,5.43,8.1,28.53,8.1,28.53"/>
            <path class="cls-6" d="M1244.69,537.18s23.29,36.84,24.48,35.05c11.33-7.16,42.34-36.1,45.32-35.05,9.54,7.02,96.61,50.55,101.98,57.71,5.37,7.16,14.92,16.94,14.92,16.94"/>
            <path class="cls-6" d="M1393.14,656.08s-38.69-24.91-33.32-30.52c5.37-5.62,7.75,2.14,11.33-7.41,3.58-9.54-11.84-56.3-11.84-56.3,0,0,5.88-15.56,18.4-12.88,12.52,2.68,25.05,16.7,36.68,14.61s13.42,1.79,23.56-6.26c10.14-8.05,11.93-10.46,21.77-8.66,9.84,1.8,16.35,1.14,16.35,1.14"/>
            <path class="cls-6" d="M1488.83,491.4s-15.4-.58-18.08,2.7c-2.68,3.28-2.98,10.73-12.52,12.82s-30.42,3.88-34.29,7.75c-3.88,3.88-16.7,12.23-21.17,7.45-4.47-4.77-10.14-5.07-7.45-9.24,2.68-4.17,12.52-16.1,9.24-18.49-3.28-2.39-1.49-4.89-8.65-3.04s-30.24,20.04-36.59,17.95c-6.35-2.09-17.98-8.95-17.98-8.95l-15.8,6.78-18.19-10.06-38.37-4.77"/>
            <path class="cls-6" d="M1341.33,500.37s9.54-10.73,6.86-15.51-5.37-25.35-1.79-31.31c3.58-5.96,20.28-15.8,21.77-21.47,1.49-5.67,8.65-27.73,15.51-29.52s15.08-10.73,15.08-10.73"/>
            <path class="cls-6" d="M1349.58,449.87s7.55,3.38,10.54,5.17c9.54-2.98,30.42-20.28,33.99-15.21,3.58,5.07-9.54,19.98-6.26,21.47s24.75,13.07,30.12,10.11c5.37-2.96,9.84-22.04,15.8-21.45,5.96.6,20.87,5.79,27.73,5.43,6.86-.36,22.14-1.81,22.14-1.81"/>
          </g>
          <polyline class="cls-7" points="812.02 1230.39 721.54 1064.14 238.1 1064.14"/>
          <polyline class="cls-7" points="947.57 1209.59 1038.05 1265.29 1456.74 1265.29"/>
          <polyline class="cls-7" points="947.4 1277.77 975.52 1503.55 1456.57 1503.55"/>
          <polyline class="cls-7" points="782.56 1230.39 595.89 1303.16 118.88 1303.16"/>
          <text class="cls-3" transform="translate(236.1 1047.88)"><tspan x="0" y="0">Unidade Palmas</tspan></text>
          <text class="cls-3" transform="translate(236.99 1110.71)"><tspan x="0" y="0">Parque Fabril /</tspan><tspan class="cls-4" x="262.34" y="0"> </tspan><tspan x="271.25" y="0">ADM</tspan></text>
          <text class="cls-3" transform="translate(1102.91 1249.11) scale(1.02 1)"><tspan x="0" y="0">Unidades</tspan><tspan class="cls-8" x="169" y="0"> </tspan><tspan x="177.91" y="0">Araucária</tspan></text>
          <g>
            <path class="cls-2" d="M1086.18,1299.39l3.79.96c-.79,3.11-2.22,5.49-4.29,7.12s-4.59,2.45-7.57,2.45-5.6-.63-7.53-1.88-3.41-3.08-4.41-5.46-1.51-4.94-1.51-7.68c0-2.98.57-5.58,1.71-7.8s2.76-3.91,4.86-5.06,4.42-1.73,6.94-1.73c2.86,0,5.27.73,7.23,2.19s3.31,3.51,4.08,6.15l-3.73.88c-.66-2.08-1.63-3.6-2.89-4.55s-2.85-1.43-4.77-1.43c-2.2,0-4.04.53-5.52,1.58s-2.52,2.47-3.12,4.25-.9,3.61-.9,5.5c0,2.43.35,4.56,1.06,6.38s1.81,3.17,3.31,4.07,3.12,1.35,4.86,1.35c2.12,0,3.92-.61,5.39-1.84s2.47-3.04,2.99-5.45Z"/>
            <path class="cls-2" d="M1108.39,1302.75l3.63.45c-.57,2.12-1.63,3.77-3.18,4.94s-3.53,1.76-5.94,1.76c-3.03,0-5.44-.93-7.22-2.8s-2.67-4.49-2.67-7.86.9-6.2,2.7-8.12,4.13-2.89,6.99-2.89,5.04.94,6.8,2.83,2.64,4.54,2.64,7.97c0,.21,0,.52-.02.94h-15.47c.13,2.28.77,4.02,1.93,5.23s2.6,1.82,4.34,1.82c1.29,0,2.39-.34,3.3-1.02s1.63-1.76,2.17-3.24ZM1096.85,1297.07h11.58c-.16-1.75-.6-3.05-1.33-3.93-1.12-1.35-2.57-2.03-4.36-2.03-1.61,0-2.97.54-4.07,1.62s-1.71,2.53-1.83,4.34Z"/>
            <path class="cls-2" d="M1116.44,1309.43v-20.74h3.16v2.95c1.52-2.28,3.72-3.42,6.6-3.42,1.25,0,2.4.22,3.45.67s1.83,1.04,2.35,1.77.89,1.59,1.09,2.6c.13.65.2,1.79.2,3.42v12.75h-3.52v-12.62c0-1.43-.14-2.5-.41-3.21s-.76-1.28-1.46-1.7-1.51-.63-2.45-.63c-1.5,0-2.79.48-3.88,1.43s-1.63,2.75-1.63,5.41v11.33h-3.52Z"/>
            <path class="cls-2" d="M1146.36,1306.29l.51,3.11c-.99.21-1.88.31-2.66.31-1.28,0-2.27-.2-2.97-.61s-1.2-.93-1.48-1.59-.43-2.04-.43-4.15v-11.93h-2.58v-2.73h2.58v-5.14l3.5-2.11v7.25h3.54v2.73h-3.54v12.13c0,1,.06,1.65.19,1.93s.33.51.61.68.68.25,1.2.25c.39,0,.91-.05,1.54-.14Z"/>
            <path class="cls-2" d="M1149.76,1309.43v-20.74h3.16v3.14c.81-1.47,1.55-2.44,2.24-2.91s1.44-.7,2.26-.7c1.18,0,2.39.38,3.61,1.13l-1.21,3.26c-.86-.51-1.72-.76-2.58-.76-.77,0-1.46.23-2.07.69s-1.05,1.1-1.31,1.92c-.39,1.25-.59,2.62-.59,4.1v10.86h-3.52Z"/>
            <path class="cls-2" d="M1161.81,1299.06c0-3.84,1.07-6.69,3.2-8.54,1.78-1.54,3.96-2.3,6.52-2.3,2.85,0,5.18.93,6.99,2.8s2.71,4.45,2.71,7.74c0,2.67-.4,4.77-1.2,6.3s-1.97,2.72-3.5,3.56-3.2,1.27-5.01,1.27c-2.9,0-5.25-.93-7.04-2.79s-2.69-4.54-2.69-8.05ZM1165.42,1299.06c0,2.66.58,4.65,1.74,5.97s2.62,1.98,4.38,1.98,3.2-.66,4.36-1.99,1.74-3.35,1.74-6.07c0-2.57-.58-4.51-1.75-5.83s-2.61-1.98-4.35-1.98-3.22.66-4.38,1.97-1.74,3.3-1.74,5.96Z"/>
            <path class="cls-2" d="M1209.93,1309.43v-2.62c-1.32,2.06-3.25,3.09-5.8,3.09-1.65,0-3.17-.46-4.56-1.37s-2.46-2.18-3.22-3.82-1.14-3.51-1.14-5.63.34-3.95,1.04-5.63,1.73-2.98,3.11-3.88,2.92-1.35,4.63-1.35c1.25,0,2.36.26,3.34.79s1.77,1.21,2.38,2.06v-10.27h3.5v28.63h-3.26ZM1198.82,1299.08c0,2.66.56,4.64,1.68,5.96s2.44,1.97,3.96,1.97,2.84-.63,3.92-1.88,1.61-3.17,1.61-5.75c0-2.84-.55-4.92-1.64-6.25s-2.44-1.99-4.04-1.99-2.87.64-3.92,1.91-1.57,3.29-1.57,6.04Z"/>
            <path class="cls-2" d="M1232.92,1302.75l3.63.45c-.57,2.12-1.63,3.77-3.18,4.94s-3.53,1.76-5.94,1.76c-3.03,0-5.44-.93-7.22-2.8s-2.67-4.49-2.67-7.86.9-6.2,2.7-8.12,4.13-2.89,6.99-2.89,5.04.94,6.8,2.83,2.64,4.54,2.64,7.97c0,.21,0,.52-.02.94h-15.47c.13,2.28.77,4.02,1.93,5.23s2.6,1.82,4.34,1.82c1.29,0,2.39-.34,3.3-1.02s1.63-1.76,2.17-3.24ZM1221.38,1297.07h11.58c-.16-1.75-.6-3.05-1.33-3.93-1.12-1.35-2.57-2.03-4.36-2.03-1.61,0-2.97.54-4.07,1.62s-1.71,2.53-1.83,4.34Z"/>
            <path class="cls-2" d="M1252.53,1309.43v-28.63h9.86c2.23,0,3.93.14,5.1.41,1.64.38,3.04,1.06,4.2,2.05,1.51,1.28,2.64,2.91,3.39,4.89s1.12,4.25,1.12,6.81c0,2.17-.25,4.1-.76,5.78s-1.16,3.07-1.95,4.17-1.66,1.97-2.61,2.6-2.08,1.11-3.42,1.44-2.87.49-4.6.49h-10.33ZM1256.32,1306.05h6.11c1.89,0,3.37-.18,4.44-.53s1.93-.85,2.57-1.48c.9-.9,1.6-2.11,2.1-3.62s.75-3.36.75-5.52c0-3-.49-5.3-1.47-6.9s-2.18-2.69-3.58-3.23c-1.02-.39-2.65-.59-4.9-.59h-6.02v21.88Z"/>
            <path class="cls-2" d="M1280.99,1284.84v-4.04h3.52v4.04h-3.52ZM1280.99,1309.43v-20.74h3.52v20.74h-3.52Z"/>
            <path class="cls-2" d="M1288.45,1303.24l3.48-.55c.2,1.39.74,2.46,1.63,3.2s2.14,1.11,3.74,1.11,2.81-.33,3.59-.99,1.17-1.43,1.17-2.31c0-.79-.34-1.42-1.04-1.88-.48-.31-1.68-.71-3.59-1.19-2.58-.65-4.37-1.21-5.36-1.69s-1.75-1.13-2.27-1.97-.77-1.77-.77-2.78c0-.92.21-1.78.63-2.57s1-1.44,1.73-1.96c.55-.4,1.29-.75,2.24-1.03s1.96-.42,3.04-.42c1.63,0,3.06.23,4.29.7s2.14,1.1,2.72,1.9.99,1.87,1.21,3.21l-3.44.47c-.16-1.07-.61-1.9-1.36-2.5s-1.81-.9-3.17-.9c-1.61,0-2.77.27-3.46.8s-1.04,1.16-1.04,1.88c0,.46.14.87.43,1.23.29.38.74.69,1.35.94.35.13,1.39.43,3.11.9,2.49.66,4.22,1.21,5.21,1.63s1.75,1.04,2.31,1.85.84,1.81.84,3.01-.34,2.28-1.03,3.31-1.67,1.84-2.96,2.4-2.75.85-4.38.85c-2.7,0-4.75-.56-6.16-1.68s-2.31-2.78-2.71-4.98Z"/>
            <path class="cls-2" d="M1317.53,1306.29l.51,3.11c-.99.21-1.88.31-2.66.31-1.28,0-2.27-.2-2.97-.61s-1.2-.93-1.48-1.59-.43-2.04-.43-4.15v-11.93h-2.58v-2.73h2.58v-5.14l3.5-2.11v7.25h3.54v2.73h-3.54v12.13c0,1,.06,1.65.19,1.93s.33.51.61.68.68.25,1.2.25c.39,0,.91-.05,1.54-.14Z"/>
            <path class="cls-2" d="M1320.93,1309.43v-20.74h3.16v3.14c.81-1.47,1.55-2.44,2.24-2.91s1.44-.7,2.26-.7c1.18,0,2.39.38,3.61,1.13l-1.21,3.26c-.86-.51-1.72-.76-2.58-.76-.77,0-1.46.23-2.07.69s-1.05,1.1-1.31,1.92c-.39,1.25-.59,2.62-.59,4.1v10.86h-3.52Z"/>
            <path class="cls-2" d="M1334.31,1284.84v-4.04h3.52v4.04h-3.52ZM1334.31,1309.43v-20.74h3.52v20.74h-3.52Z"/>
            <path class="cls-2" d="M1346.42,1309.43h-3.26v-28.63h3.52v10.21c1.48-1.86,3.38-2.79,5.68-2.79,1.28,0,2.48.26,3.62.77s2.08,1.24,2.81,2.17,1.31,2.05,1.73,3.37.62,2.72.62,4.22c0,3.55-.88,6.3-2.64,8.24s-3.87,2.91-6.33,2.91-4.37-1.02-5.76-3.07v2.6ZM1346.38,1298.91c0,2.49.34,4.28,1.02,5.39,1.11,1.81,2.6,2.71,4.49,2.71,1.54,0,2.86-.67,3.98-2s1.68-3.32,1.68-5.97-.54-4.71-1.61-6-2.37-1.93-3.9-1.93-2.86.67-3.98,2-1.68,3.26-1.68,5.79Z"/>
            <path class="cls-2" d="M1379.01,1309.43v-3.05c-1.61,2.34-3.81,3.52-6.58,3.52-1.22,0-2.37-.23-3.43-.7s-1.85-1.06-2.36-1.77-.88-1.58-1.08-2.61c-.14-.69-.21-1.78-.21-3.28v-12.85h3.52v11.5c0,1.84.07,3.07.21,3.71.22.92.69,1.65,1.41,2.18s1.6.79,2.66.79,2.04-.27,2.97-.81,1.58-1.28,1.96-2.21.58-2.28.58-4.05v-11.11h3.52v20.74h-3.14Z"/>
            <path class="cls-2" d="M1387.69,1284.84v-4.04h3.52v4.04h-3.52ZM1387.69,1309.43v-20.74h3.52v20.74h-3.52Z"/>
            <path class="cls-2" d="M1410.09,1301.83l3.46.45c-.38,2.38-1.34,4.25-2.9,5.6s-3.47,2.02-5.73,2.02c-2.84,0-5.12-.93-6.85-2.78s-2.59-4.51-2.59-7.98c0-2.24.37-4.2,1.11-5.88s1.87-2.94,3.39-3.78,3.17-1.26,4.95-1.26c2.25,0,4.09.57,5.53,1.71s2.35,2.76,2.75,4.85l-3.42.53c-.33-1.39-.9-2.44-1.73-3.14s-1.83-1.05-3-1.05c-1.77,0-3.21.63-4.32,1.9s-1.66,3.28-1.66,6.03.53,4.81,1.6,6.07,2.46,1.89,4.18,1.89c1.38,0,2.53-.42,3.46-1.27s1.51-2.15,1.76-3.91ZM1401.94,1312.05l1.02-3.46h2.62l-.64,2.09c1.11.13,1.94.47,2.5,1.03s.84,1.17.84,1.85c0,.98-.47,1.84-1.41,2.59s-2.35,1.12-4.24,1.12c-1.07,0-2-.08-2.81-.23l.21-2.29c.83.05,1.45.08,1.84.08,1.22,0,2.08-.17,2.58-.51.38-.26.57-.58.57-.96,0-.23-.08-.44-.22-.62s-.43-.34-.83-.47-1.07-.2-2.01-.21Z"/>
            <path class="cls-2" d="M1430.09,1306.87c-1.3,1.11-2.56,1.89-3.76,2.34s-2.5.68-3.88.68c-2.28,0-4.03-.56-5.25-1.67s-1.84-2.54-1.84-4.27c0-1.02.23-1.94.69-2.78s1.07-1.51,1.82-2.02,1.59-.89,2.53-1.15c.69-.18,1.73-.36,3.12-.53,2.84-.34,4.93-.74,6.27-1.21.01-.48.02-.79.02-.92,0-1.43-.33-2.44-1-3.03-.9-.79-2.23-1.19-4-1.19-1.65,0-2.87.29-3.66.87s-1.37,1.6-1.75,3.08l-3.44-.47c.31-1.47.83-2.66,1.54-3.56s1.75-1.6,3.11-2.09,2.92-.73,4.71-.73,3.21.21,4.32.62,1.92.94,2.44,1.57.89,1.43,1.09,2.39c.12.6.18,1.68.18,3.24v4.69c0,3.27.08,5.33.22,6.2s.45,1.7.89,2.49h-3.67c-.36-.73-.6-1.58-.7-2.56ZM1418.39,1285.62c-.01-1.35.36-2.43,1.11-3.24.74-.81,1.69-1.21,2.85-1.21.81,0,1.91.35,3.3,1.05.77.39,1.38.59,1.84.59.42,0,.74-.11.96-.34s.38-.68.47-1.36h2.54c-.04,1.48-.41,2.6-1.12,3.34s-1.61,1.11-2.71,1.11c-.82,0-1.9-.36-3.24-1.09-.87-.47-1.51-.7-1.91-.7-.44,0-.8.16-1.07.47-.29.31-.42.77-.41,1.39h-2.6ZM1429.8,1299.02c-1.28.52-3.19.96-5.74,1.33-1.45.21-2.47.44-3.07.7s-1.06.64-1.39,1.14-.49,1.06-.49,1.67c0,.94.35,1.72,1.06,2.34s1.75.94,3.12.94,2.56-.3,3.61-.89,1.83-1.4,2.32-2.43c.38-.79.57-1.97.57-3.52v-1.29Z"/>
            <path class="cls-2" d="M1437.49,1299.06c0-3.84,1.07-6.69,3.2-8.54,1.78-1.54,3.96-2.3,6.52-2.3,2.85,0,5.18.93,6.99,2.8s2.71,4.45,2.71,7.74c0,2.67-.4,4.77-1.2,6.3s-1.97,2.72-3.5,3.56-3.2,1.27-5.01,1.27c-2.9,0-5.25-.93-7.04-2.79s-2.69-4.54-2.69-8.05ZM1441.1,1299.06c0,2.66.58,4.65,1.74,5.97s2.62,1.98,4.38,1.98,3.2-.66,4.36-1.99,1.74-3.35,1.74-6.07c0-2.57-.58-4.51-1.75-5.83s-2.61-1.98-4.35-1.98-3.22.66-4.38,1.97-1.74,3.3-1.74,5.96Z"/>
            <path class="cls-2" d="M1154.7,1357.43v-28.63h3.89l15.04,22.48v-22.48h3.63v28.63h-3.89l-15.04-22.5v22.5h-3.63Z"/>
            <path class="cls-2" d="M1181.87,1347.06c0-3.84,1.07-6.69,3.2-8.54,1.78-1.54,3.96-2.3,6.52-2.3,2.85,0,5.18.93,6.99,2.8s2.71,4.45,2.71,7.74c0,2.67-.4,4.77-1.2,6.3s-1.97,2.72-3.5,3.56-3.2,1.27-5.01,1.27c-2.9,0-5.25-.93-7.04-2.79s-2.69-4.54-2.69-8.05ZM1185.48,1347.06c0,2.66.58,4.65,1.74,5.97s2.62,1.98,4.38,1.98,3.2-.66,4.36-1.99,1.74-3.35,1.74-6.07c0-2.57-.58-4.51-1.75-5.83s-2.61-1.98-4.35-1.98-3.22.66-4.38,1.97-1.74,3.3-1.74,5.96Z"/>
            <path class="cls-2" d="M1211.18,1357.43l-7.89-20.74h3.71l4.45,12.42c.48,1.34.92,2.73,1.33,4.18.31-1.09.75-2.41,1.31-3.95l4.61-12.66h3.61l-7.85,20.74h-3.28Z"/>
            <path class="cls-2" d="M1238.96,1354.87c-1.3,1.11-2.56,1.89-3.76,2.34s-2.5.68-3.88.68c-2.28,0-4.03-.56-5.25-1.67s-1.84-2.54-1.84-4.27c0-1.02.23-1.94.69-2.78s1.07-1.51,1.82-2.02,1.59-.89,2.53-1.15c.69-.18,1.73-.36,3.12-.53,2.84-.34,4.93-.74,6.27-1.21.01-.48.02-.79.02-.92,0-1.43-.33-2.44-1-3.03-.9-.79-2.23-1.19-4-1.19-1.65,0-2.87.29-3.66.87s-1.37,1.6-1.75,3.08l-3.44-.47c.31-1.47.83-2.66,1.54-3.56s1.75-1.6,3.11-2.09,2.92-.73,4.71-.73,3.21.21,4.32.62,1.92.94,2.44,1.57.89,1.43,1.09,2.39c.12.6.18,1.68.18,3.24v4.69c0,3.27.08,5.33.22,6.2s.45,1.7.89,2.49h-3.67c-.36-.73-.6-1.58-.7-2.56ZM1238.66,1347.02c-1.28.52-3.19.96-5.74,1.33-1.45.21-2.47.44-3.07.7s-1.06.64-1.39,1.14-.49,1.06-.49,1.67c0,.94.35,1.72,1.06,2.34s1.75.94,3.12.94,2.56-.3,3.61-.89,1.83-1.4,2.32-2.43c.38-.79.57-1.97.57-3.52v-1.29Z"/>
            <path class="cls-2" d="M1259.42,1357.43v-28.63h19.32v3.38h-15.53v8.87h13.44v3.38h-13.44v13.01h-3.79Z"/>
            <path class="cls-2" d="M1296.75,1354.87c-1.3,1.11-2.56,1.89-3.76,2.34s-2.5.68-3.88.68c-2.28,0-4.03-.56-5.25-1.67s-1.84-2.54-1.84-4.27c0-1.02.23-1.94.69-2.78s1.07-1.51,1.82-2.02,1.59-.89,2.53-1.15c.69-.18,1.73-.36,3.12-.53,2.84-.34,4.93-.74,6.27-1.21.01-.48.02-.79.02-.92,0-1.43-.33-2.44-1-3.03-.9-.79-2.23-1.19-4-1.19-1.65,0-2.87.29-3.66.87s-1.37,1.6-1.75,3.08l-3.44-.47c.31-1.47.83-2.66,1.54-3.56s1.75-1.6,3.11-2.09,2.92-.73,4.71-.73,3.21.21,4.32.62,1.92.94,2.44,1.57.89,1.43,1.09,2.39c.12.6.18,1.68.18,3.24v4.69c0,3.27.08,5.33.22,6.2s.45,1.7.89,2.49h-3.67c-.36-.73-.6-1.58-.7-2.56ZM1296.46,1347.02c-1.28.52-3.19.96-5.74,1.33-1.45.21-2.47.44-3.07.7s-1.06.64-1.39,1.14-.49,1.06-.49,1.67c0,.94.35,1.72,1.06,2.34s1.75.94,3.12.94,2.56-.3,3.61-.89,1.83-1.4,2.32-2.43c.38-.79.57-1.97.57-3.52v-1.29ZM1289.62,1334.11l2.6-5.47h4.61l-4.3,5.47h-2.91Z"/>
            <path class="cls-2" d="M1308.7,1357.43h-3.26v-28.63h3.52v10.21c1.48-1.86,3.38-2.79,5.68-2.79,1.28,0,2.48.26,3.62.77s2.08,1.24,2.81,2.17,1.31,2.05,1.73,3.37.62,2.72.62,4.22c0,3.55-.88,6.3-2.64,8.24s-3.87,2.91-6.33,2.91-4.37-1.02-5.76-3.07v2.6ZM1308.66,1346.91c0,2.49.34,4.28,1.02,5.39,1.11,1.81,2.6,2.71,4.49,2.71,1.54,0,2.86-.67,3.98-2s1.68-3.32,1.68-5.97-.54-4.71-1.61-6-2.37-1.93-3.9-1.93-2.86.67-3.98,2-1.68,3.26-1.68,5.79Z"/>
            <path class="cls-2" d="M1327.67,1357.43v-20.74h3.16v3.14c.81-1.47,1.55-2.44,2.24-2.91s1.44-.7,2.26-.7c1.18,0,2.39.38,3.61,1.13l-1.21,3.26c-.86-.51-1.72-.76-2.58-.76-.77,0-1.46.23-2.07.69s-1.05,1.1-1.31,1.92c-.39,1.25-.59,2.62-.59,4.1v10.86h-3.52Z"/>
            <path class="cls-2" d="M1341.05,1332.84v-4.04h3.52v4.04h-3.52ZM1341.05,1357.43v-20.74h3.52v20.74h-3.52Z"/>
            <path class="cls-2" d="M1363.45,1349.83l3.46.45c-.38,2.38-1.34,4.25-2.9,5.6s-3.47,2.02-5.73,2.02c-2.84,0-5.12-.93-6.85-2.78s-2.59-4.51-2.59-7.98c0-2.24.37-4.2,1.11-5.88s1.87-2.94,3.39-3.78,3.17-1.26,4.95-1.26c2.25,0,4.09.57,5.53,1.71s2.35,2.76,2.75,4.85l-3.42.53c-.33-1.39-.9-2.44-1.73-3.14s-1.83-1.05-3-1.05c-1.77,0-3.21.63-4.32,1.9s-1.66,3.28-1.66,6.03.53,4.81,1.6,6.07,2.46,1.89,4.18,1.89c1.38,0,2.53-.42,3.46-1.27s1.51-2.15,1.76-3.91Z"/>
            <path class="cls-2" d="M1383.45,1354.87c-1.3,1.11-2.56,1.89-3.76,2.34s-2.5.68-3.88.68c-2.28,0-4.03-.56-5.25-1.67s-1.84-2.54-1.84-4.27c0-1.02.23-1.94.69-2.78s1.07-1.51,1.82-2.02,1.59-.89,2.53-1.15c.69-.18,1.73-.36,3.12-.53,2.84-.34,4.93-.74,6.27-1.21.01-.48.02-.79.02-.92,0-1.43-.33-2.44-1-3.03-.9-.79-2.23-1.19-4-1.19-1.65,0-2.87.29-3.66.87s-1.37,1.6-1.75,3.08l-3.44-.47c.31-1.47.83-2.66,1.54-3.56s1.75-1.6,3.11-2.09,2.92-.73,4.71-.73,3.21.21,4.32.62,1.92.94,2.44,1.57.89,1.43,1.09,2.39c.12.6.18,1.68.18,3.24v4.69c0,3.27.08,5.33.22,6.2s.45,1.7.89,2.49h-3.67c-.36-.73-.6-1.58-.7-2.56ZM1383.15,1347.02c-1.28.52-3.19.96-5.74,1.33-1.45.21-2.47.44-3.07.7s-1.06.64-1.39,1.14-.49,1.06-.49,1.67c0,.94.35,1.72,1.06,2.34s1.75.94,3.12.94,2.56-.3,3.61-.89,1.83-1.4,2.32-2.43c.38-.79.57-1.97.57-3.52v-1.29Z"/>
            <path class="cls-2" d="M1422.51,1328.8h3.79v16.54c0,2.88-.33,5.16-.98,6.86s-1.83,3.07-3.53,4.13-3.93,1.59-6.69,1.59-4.88-.46-6.58-1.39-2.92-2.26-3.65-4.01-1.09-4.14-1.09-7.18v-16.54h3.79v16.52c0,2.49.23,4.32.69,5.5s1.26,2.09,2.38,2.72,2.5.96,4.13.96c2.79,0,4.77-.63,5.96-1.89s1.78-3.69,1.78-7.29v-16.52Z"/>
            <path class="cls-2" d="M1432.61,1357.43v-28.63h9.86c2.23,0,3.93.14,5.1.41,1.64.38,3.04,1.06,4.2,2.05,1.51,1.28,2.64,2.91,3.39,4.89s1.12,4.25,1.12,6.81c0,2.17-.25,4.1-.76,5.78s-1.16,3.07-1.95,4.17-1.66,1.97-2.61,2.6-2.08,1.11-3.42,1.44-2.87.49-4.6.49h-10.33ZM1436.4,1354.05h6.11c1.89,0,3.37-.18,4.44-.53s1.93-.85,2.57-1.48c.9-.9,1.6-2.11,2.1-3.62s.75-3.36.75-5.52c0-3-.49-5.3-1.47-6.9s-2.18-2.69-3.58-3.23c-1.02-.39-2.65-.59-4.9-.59h-6.02v21.88Z"/>
          </g>
          <text class="cls-3" transform="translate(1208.43 1487.93)"><tspan x="0" y="0">Unidade Itajaí</tspan></text>
          <text class="cls-3" transform="translate(1113.84 1550.13)"><tspan x="0" y="0">Escritório Portuário</tspan></text>
          <text class="cls-3" transform="translate(115.55 1285.89)"><tspan x="0" y="0">Unidade Francisco Beltrão</tspan></text>
          <text class="cls-3" transform="translate(116.55 1348.23)"><tspan x="0" y="0">Parque Fabril /</tspan><tspan class="cls-4" x="262.34" y="0"> </tspan><tspan x="271.25" y="0">ADM</tspan></text>
        </g>
      </g>
    </g>
  </g>
</svg>