<svg width="28" height="32" viewBox="0 0 28 32" fill="none" xmlns="http://www.w3.org/2000/svg">
<path d="M20.6667 11.9999C20.6667 20.8833 7.33341 20.8833 7.33341 11.9999H10.6667C10.6667 16.4499 17.3334 16.4499 17.3334 11.9999M27.3334 26.9999V31.9999H0.666748V26.9999C0.666748 22.5499 9.55008 20.3333 14.0001 20.3333C18.4501 20.3333 27.3334 22.5499 27.3334 26.9999ZM24.1667 26.9999C24.1667 25.9333 18.9501 23.4999 14.0001 23.4999C9.05008 23.4999 3.83341 25.9333 3.83341 26.9999V28.8333H24.1667M14.8334 0.333252C15.3001 0.333252 15.6667 0.699919 15.6667 1.16659V6.16659H17.3334V1.99992C18.5129 2.54579 19.5012 3.43357 20.1698 4.54806C20.8385 5.66255 21.1568 6.95229 21.0834 8.24992C21.0834 8.24992 22.2501 8.48325 22.3334 10.3333H5.66675C5.66675 8.48325 6.91675 8.24992 6.91675 8.24992C6.84333 6.95229 7.16162 5.66255 7.83032 4.54806C8.49901 3.43357 9.48723 2.54579 10.6667 1.99992V6.16659H12.3334V1.16659C12.3334 0.699919 12.7001 0.333252 13.1667 0.333252" fill="black"/>
</svg>
