<svg width="62" height="57" viewBox="0 0 62 57" fill="none" xmlns="http://www.w3.org/2000/svg">
<path d="M27.743 43.677C27.743 44.2483 27.5142 44.7961 27.107 45.2C26.6997 45.6039 26.1474 45.8309 25.5715 45.8309H17.9715C17.3956 45.8309 16.8433 45.6039 16.4361 45.2C16.0289 44.7961 15.8001 44.2483 15.8001 43.677C15.8001 43.1058 16.0289 42.5579 16.4361 42.154C16.8433 41.7501 17.3956 41.5232 17.9715 41.5232H25.5715C26.1474 41.5232 26.6997 41.7501 27.107 42.154C27.5142 42.5579 27.743 43.1058 27.743 43.677ZM44.0287 41.5232H36.4287C35.8528 41.5232 35.3005 41.7501 34.8932 42.154C34.486 42.5579 34.2572 43.1058 34.2572 43.677C34.2572 44.2483 34.486 44.7961 34.8932 45.2C35.3005 45.6039 35.8528 45.8309 36.4287 45.8309H44.0287C44.6046 45.8309 45.1569 45.6039 45.5641 45.2C45.9713 44.7961 46.2001 44.2483 46.2001 43.677C46.2001 43.1058 45.9713 42.5579 45.5641 42.154C45.1569 41.7501 44.6046 41.5232 44.0287 41.5232ZM61.4001 54.4463C61.4001 55.0175 61.1713 55.5653 60.7641 55.9693C60.3569 56.3732 59.8046 56.6001 59.2287 56.6001H2.77153C2.19563 56.6001 1.64332 56.3732 1.23609 55.9693C0.828872 55.5653 0.600098 55.0175 0.600098 54.4463C0.600098 53.875 0.828872 53.3272 1.23609 52.9233C1.64332 52.5193 2.19563 52.2924 2.77153 52.2924H4.94295V19.9847C4.94295 19.5847 5.05525 19.1926 5.26726 18.8524C5.47926 18.5121 5.7826 18.2371 6.14329 18.0583C6.50398 17.8794 6.90776 17.8036 7.30939 17.8396C7.71102 17.8755 8.09463 18.0216 8.41724 18.2616L22.3144 28.6001V19.9847C22.3144 19.5847 22.4267 19.1926 22.6387 18.8524C22.8507 18.5121 23.154 18.2371 23.5147 18.0583C23.8754 17.8794 24.2792 17.8036 24.6808 17.8396C25.0824 17.8755 25.4661 18.0216 25.7887 18.2616L36.3038 26.0828L39.4415 4.29933C39.5935 3.27451 40.1109 2.33771 40.8997 1.65896C41.6886 0.98022 42.6967 0.604533 43.741 0.600098H48.6592C49.7035 0.604533 50.7116 0.98022 51.5005 1.65896C52.2893 2.33771 52.8067 3.27451 52.9587 4.29933L57.0301 32.6036C57.0301 32.6036 57.0518 32.8136 57.0518 32.9078V52.2924H59.2232C59.5088 52.2917 59.7918 52.3469 60.0559 52.4548C60.32 52.5627 60.56 52.7213 60.7622 52.9213C60.9644 53.1214 61.1248 53.3591 61.2343 53.6208C61.3438 53.8824 61.4001 54.163 61.4001 54.4463ZM40.2667 29.0309L42.582 30.7539H52.3832L48.6592 4.90779H43.741L40.2667 29.0309ZM9.28581 52.2924H52.7144V35.0616H41.8572C41.3874 35.0616 40.9302 34.9105 40.5544 34.6309L36.6458 31.7232L26.6572 24.2924V32.9078C26.6572 33.3078 26.5449 33.6999 26.3329 34.0401C26.1209 34.3804 25.8176 34.6554 25.4569 34.8342C25.0962 35.0131 24.6924 35.0889 24.2908 35.0529C23.8892 35.017 23.5056 34.8709 23.183 34.6309L9.28581 24.2924V52.2924Z" fill="black"/>
</svg>
