<svg width="36" height="28" viewBox="0 0 36 28" fill="none" xmlns="http://www.w3.org/2000/svg">
<path d="M26.604 5.635C26.8596 5.88 27 6.21425 27 6.5625V10.9375C27 11.2856 26.8578 11.6194 26.6046 11.8656C26.3514 12.1117 26.008 12.25 25.65 12.25C25.292 12.25 24.9486 12.1117 24.6954 11.8656C24.4422 11.6194 24.3 11.2856 24.3 10.9375V9.73L21.204 12.74C21.0794 12.8653 20.9304 12.9652 20.7657 13.0339C20.6009 13.1026 20.4238 13.1388 20.2445 13.1402C20.0652 13.1416 19.8875 13.1083 19.7216 13.0423C19.5557 12.9762 19.4051 12.8787 19.2784 12.7554C19.1517 12.6321 19.0515 12.4855 18.9837 12.3242C18.9159 12.1628 18.8818 11.99 18.8835 11.8157C18.8851 11.6414 18.9224 11.4692 18.9933 11.3091C19.0641 11.149 19.167 11.0043 19.296 10.8832L22.392 7.875H21.15C20.792 7.875 20.4486 7.73672 20.1954 7.49058C19.9422 7.24444 19.8 6.9106 19.8 6.5625C19.8 6.2144 19.9422 5.88056 20.1954 5.63442C20.4486 5.38828 20.792 5.25 21.15 5.25H25.65C26.0079 5.25031 26.3511 5.38879 26.604 5.635ZM9 21.4375C9 21.7856 9.14223 22.1194 9.39541 22.3656C9.64858 22.6117 9.99196 22.75 10.35 22.75H14.8518C15.2098 22.75 15.5532 22.6117 15.8064 22.3656C16.0596 22.1194 16.2018 21.7856 16.2018 21.4375C16.2018 21.0894 16.0596 20.7556 15.8064 20.5094C15.5532 20.2633 15.2098 20.125 14.8518 20.125H13.6098L16.7058 17.115C16.9516 16.8673 17.0875 16.5357 17.0843 16.1916C17.081 15.8475 16.9389 15.5183 16.6885 15.2751C16.438 15.0319 16.0994 14.894 15.7454 14.8912C15.3914 14.8883 15.0505 15.0208 14.796 15.26L11.7 18.2665V17.059C11.7 16.7109 11.5578 16.3771 11.3046 16.1309C11.0514 15.8848 10.708 15.7465 10.35 15.7465C9.99196 15.7465 9.64858 15.8848 9.39541 16.1309C9.14223 16.3771 9 16.7109 9 17.059V21.4375ZM0 4.8125C0 3.53615 0.521516 2.31207 1.44982 1.40955C2.37813 0.50703 3.63718 0 4.95 0H31.05C32.3628 0 33.6219 0.50703 34.5502 1.40955C35.4785 2.31207 36 3.53615 36 4.8125V23.1875C36 23.8195 35.872 24.4453 35.6232 25.0292C35.3744 25.613 35.0098 26.1436 34.5502 26.5905C34.0905 27.0373 33.5448 27.3918 32.9443 27.6337C32.3437 27.8755 31.7 28 31.05 28H4.95C4.29996 28 3.65628 27.8755 3.05572 27.6337C2.45516 27.3918 1.90947 27.0373 1.44982 26.5905C0.990171 26.1436 0.625557 25.613 0.376796 25.0292C0.128036 24.4453 0 23.8195 0 23.1875V4.8125ZM4.95 2.625C3.708 2.625 2.7 3.605 2.7 4.8125V23.1875C2.7 24.395 3.708 25.375 4.95 25.375H31.05C32.292 25.375 33.3 24.395 33.3 23.1875V4.8125C33.3 3.605 32.292 2.625 31.05 2.625H4.95Z" fill="black"/>
</svg>
