<svg width="34" height="32" viewBox="0 0 34 32" fill="none" xmlns="http://www.w3.org/2000/svg">
<path d="M30.6 6.73684C31.586 6.73684 32.385 7.07368 33.014 7.73053C33.66 8.42105 34 9.17895 34 10.1053V28.6316C34 29.5579 33.66 30.3158 33.014 31.0063C32.385 31.6632 31.586 32 30.6 32H3.4C2.414 32 1.615 31.6632 0.986 31.0063C0.34 30.3158 0 29.5579 0 28.6316V10.1053C0 9.17895 0.34 8.42105 0.986 7.73053C1.615 7.07368 2.414 6.73684 3.4 6.73684H10.2V3.36842C10.2 2.39158 10.54 1.6 11.186 0.976842C11.815 0.336842 12.614 0 13.6 0H20.4C21.386 0 22.185 0.336842 22.814 0.976842C23.46 1.6 23.8 2.39158 23.8 3.36842V6.73684H30.6ZM3.4 10.1053V28.6316H30.6V10.1053H3.4ZM20.4 6.73684V3.36842H13.6V6.73684H20.4Z" fill="black"/>
</svg>
