<?xml version="1.0" encoding="utf-8"?>
<svg version="1.1" id="Layer_1" xmlns="http://www.w3.org/2000/svg"
     xmlns:xlink="http://www.w3.org/1999/xlink" x="0px" y="0px"
     viewBox="0 0 55.2 38.4" style="enable-background:new 0 0 55.2 38.4"
     xml:space="preserve">
  <style type="text/css">
    .st0{fill:#009B3A;}
    .st1{fill:#FEDF00;}
    .st2{fill:#002776;}
  </style>
    <g>
    <!-- Fundo verde -->
        <path class="st0" d="M3.03,0h49.13c1.67,0,3.03,1.36,3.03,3.03v32.33c0,1.67-1.36,3.03-3.03,3.03H3.03C1.36,38.4,0,37.04,0,35.37
      V3.03C0,1.36,1.36,0,3.03,0L3.03,0z"/>
        <!-- Losango amarelo -->
        <polygon class="st1" points="4.24,19.2 27.6,34.11 50.96,19.2 27.6,4.29 4.24,19.2"/>
        <!-- Círculo azul -->
        <path class="st2" d="M27.6,9.35c5.44,0,9.85,4.41,9.85,9.85c0,5.44-4.41,9.85-9.85,9.85
      c-5.44,0-9.85-4.41-9.85-9.85C17.75,13.76,22.16,9.35,27.6,9.35L27.6,9.35z"/>
  </g>
</svg>
